<?xml version="1.0" encoding="UTF-8"?>
<svg id="Layer_2" data-name="Layer 2" xmlns="http://www.w3.org/2000/svg" viewBox="0 0 500.5 500.5">
  <defs>
    <style>
      .cls-1, .cls-2, .cls-3 {
        fill: #929497;
      }

      .cls-1, .cls-4, .cls-5, .cls-6 {
        opacity: .8;
      }

      .cls-1, .cls-5, .cls-6 {
        isolation: isolate;
      }

      .cls-2, .cls-6 {
        fill-rule: evenodd;
      }

      .cls-5 {
        fill: #e6e6e5;
        stroke: #a7a9ac;
        stroke-miterlimit: 10;
        stroke-width: .5px;
      }

      .cls-6 {
        fill: #eb2127;
      }
    </style>
  </defs>
  <g id="Layer_1-2" data-name="Layer 1">
    <g id="Layer_1-2" data-name="Layer 1-2">
      <g>
        <path class="cls-5" d="m257.25.25v144.87c54.2,0,98.13,43.94,98.13,98.13h144.87C500.25,109.05,391.45.25,257.25.25Z"/>
        <path class="cls-5" d="m257.25,355.38v144.87c134.21,0,243-108.8,243-243h-144.87c0,54.2-43.94,98.13-98.13,98.13Z"/>
        <path class="cls-5" d="m243.25,145.12V.25C109.05.25.25,109.05.25,243.25h144.87c0-54.2,43.94-98.13,98.13-98.13Z"/>
        <path class="cls-5" d="m145.12,257.25H.25c0,134.21,108.8,243,243,243v-144.87c-54.2,0-98.13-43.94-98.13-98.13Z"/>
        <circle class="cls-5" cx="249.25" cy="251.25" r="63.99"/>
        <path class="cls-6" d="m377.78,402.37c12.78,0,23.14-10.36,23.14-23.14s-10.36-23.14-23.14-23.14-23.14,10.36-23.14,23.14,10.36,23.14,23.14,23.14"/>
        <path class="cls-1" d="m124.18,368.1l-17.49,2.19-.62,2.9,3.44.62c2.24.54,2.68,1.34,2.2,3.58l-5.64,26.47c-1.47,6.84.81,10.06,6.17,10.06,4.16,0,8.99-1.92,11.18-4.56l.67-3.18c-1.52,1.34-3.76,1.88-5.23,1.88-2.1,0-2.86-1.47-2.33-4.07l7.65-35.91v.02Zm.53-15.93c0,4.22-3.42,7.63-7.63,7.63s-7.63-3.42-7.63-7.63,3.42-7.63,7.63-7.63,7.63,3.42,7.63,7.63"/>
        <g class="cls-4">
          <path class="cls-2" d="m343.08,106.11c0-1.01.82-1.82,1.82-1.82h1.55c8.03,0,13.96,4.52,17.78,8.82,1.79,2.01,3.15,4.02,4.11,5.59.95-1.57,2.32-3.57,4.11-5.59,3.82-4.3,9.74-8.82,17.78-8.82v3.48s-11.3,3.68-14.78,7.59c-1.88,2.13-3.49,4.48-4.81,6.99,1.31,2.52,2.93,4.87,4.8,6.99,3.48,3.91,8.5,7.59,14.78,7.59v3.65c-7.76,0-13.69-4.52-17.5-8.82-1.53-1.74-2.91-3.61-4.11-5.59-.95,1.57-2.32,3.57-4.11,5.59-3.82,4.3-9.74,8.82-17.78,8.51h-1.82c-1.01.31-1.82-.51-1.82-1.51s1.82-.49,1.82-.49h1.55c6.74,0,11.9-3.79,15.47-7.81,1.93-2.19,3.59-4.6,4.94-7.19-1.35-2.59-3.01-5-4.94-7.19-3.58-4.02-8.74-7.81-15.47-7.81h-1.55c-1.01,0-1.82-.82-1.82-1.82"/>
          <path class="cls-3" d="m390.22,113.11v-14.34c0-.5.41-.91.91-.91.21,0,.42.07.58.21l8.61,7.17c.44.36.44,1.04,0,1.4l-8.61,7.17c-.39.32-.96.27-1.28-.12-.14-.16-.21-.37-.21-.58Zm0,32.82v-14.34c0-.5.41-.91.91-.91.21,0,.42.07.58.21l8.61,7.17c.44.36.44,1.04,0,1.4l-8.61,7.17c-.39.32-.96.27-1.28-.12-.14-.16-.21-.37-.21-.58Z"/>
        </g>
      </g>
    </g>
    <g class="cls-4">
      <path class="cls-3" d="m105.9,98.08c.87,1.05,1,2.53.35,3.72-2.51,4.61-3.82,9.77-3.81,15.01,0,17.44,14.22,31.57,31.75,31.57,2.29,0,4.51-.24,6.65-.69,1.34-.29,2.72.25,3.51,1.37.84,1.17.78,2.76-.13,3.87-6.89,8.46-17.23,13.37-28.15,13.35-20,0-36.2-16.11-36.2-35.97,0-14.94,9.17-27.76,22.23-33.19,1.34-.56,2.88-.18,3.8.95"/>
      <path class="cls-3" d="m126.7,110.53c.16-.49.7-.76,1.19-.6.28.09.5.32.6.6l1.68,5.04c.75,2.25,2.51,4.01,4.76,4.76l5.04,1.68c.49.16.76.7.6,1.19-.09.28-.32.5-.6.6l-5.04,1.68c-2.25.75-4.01,2.51-4.76,4.76l-1.68,5.04c-.16.49-.7.76-1.19.6-.28-.09-.5-.32-.6-.6l-1.68-5.04c-.75-2.25-2.51-4.01-4.76-4.76l-5.04-1.68c-.49-.16-.76-.7-.6-1.19.09-.28.32-.5.6-.6l5.04-1.68c2.25-.75,4.01-2.51,4.76-4.76l1.68-5.04Zm13.97-13.23c.11-.33.47-.5.8-.39.18.06.33.21.39.39l1.12,3.36c.5,1.5,1.68,2.68,3.18,3.18l3.36,1.12c.33.11.5.47.39.8-.06.18-.21.33-.39.39l-3.36,1.12c-1.5.5-2.68,1.68-3.18,3.18l-1.12,3.36c-.11.33-.47.5-.8.39-.18-.06-.33-.21-.39-.39l-1.12-3.36c-.5-1.5-1.68-2.68-3.18-3.18l-3.36-1.12c-.33-.11-.5-.47-.39-.8.06-.18.21-.33.39-.39l3.36-1.12c1.5-.5,2.68-1.68,3.18-3.18l1.12-3.35h0Z"/>
    </g>
  </g>
</svg>